<svg width="24" height="24" viewBox="0 0 24 24" fill="none" xmlns="http://www.w3.org/2000/svg">
<g id="SVG">
<path id="Vector" d="M20.25 6.375C20.25 8.653 16.556 10.5 12 10.5C7.444 10.5 3.75 8.653 3.75 6.375M20.25 6.375C20.25 4.097 16.556 2.25 12 2.25C7.444 2.25 3.75 4.097 3.75 6.375M20.25 6.375V17.625C20.25 19.903 16.556 21.75 12 21.75C7.444 21.75 3.75 19.903 3.75 17.625V6.375M20.25 6.375V10.125M3.75 6.375V10.125M20.25 10.125V13.875C20.25 16.153 16.556 18 12 18C7.444 18 3.75 16.153 3.75 13.875V10.125M20.25 10.125C20.25 12.403 16.556 14.25 12 14.25C7.444 14.25 3.75 12.403 3.75 10.125" stroke="black" stroke-width="1.5" stroke-linecap="round" stroke-linejoin="round"/>
</g>
</svg>
