<svg width="24" height="24" viewBox="0 0 24 24" fill="none" xmlns="http://www.w3.org/2000/svg">
<g id="SVG">
<path id="Vector" d="M3.75 12H20.25M3.75 15.75H20.25M3.75 19.5H20.25M5.625 4.5H18.375C18.8723 4.5 19.3492 4.69754 19.7008 5.04917C20.0525 5.40081 20.25 5.87772 20.25 6.375C20.25 6.87228 20.0525 7.34919 19.7008 7.70083C19.3492 8.05246 18.8723 8.25 18.375 8.25H5.625C5.12772 8.25 4.65081 8.05246 4.29917 7.70083C3.94754 7.34919 3.75 6.87228 3.75 6.375C3.75 5.87772 3.94754 5.40081 4.29917 5.04917C4.65081 4.69754 5.12772 4.5 5.625 4.5Z" stroke="black" stroke-width="1.5" stroke-linecap="round" stroke-linejoin="round"/>
</g>
</svg>
