<svg width="40" height="40" viewBox="0 0 40 40" fill="none" xmlns="http://www.w3.org/2000/svg">
<g id="User Interface / Approve(Tick)">
<path id="Vector" d="M31.1834 12.0167C31.0285 11.8605 30.8441 11.7365 30.641 11.6519C30.4379 11.5672 30.2201 11.5237 30.0001 11.5237C29.7801 11.5237 29.5622 11.5672 29.3591 11.6519C29.156 11.7365 28.9717 11.8605 28.8167 12.0167L16.4001 24.45L11.1834 19.2167C11.0225 19.0613 10.8326 18.9391 10.6245 18.8571C10.4165 18.7751 10.1943 18.7349 9.97062 18.7387C9.74698 18.7426 9.5263 18.7905 9.32117 18.8796C9.11604 18.9688 8.93048 19.0975 8.77508 19.2583C8.61968 19.4192 8.49749 19.6091 8.41548 19.8172C8.33348 20.0253 8.29326 20.2475 8.29713 20.4711C8.301 20.6948 8.34888 20.9155 8.43803 21.1206C8.52719 21.3257 8.65588 21.5113 8.81675 21.6667L15.2167 28.0667C15.3717 28.2229 15.556 28.3469 15.7591 28.4315C15.9622 28.5161 16.1801 28.5597 16.4001 28.5597C16.6201 28.5597 16.8379 28.5161 17.041 28.4315C17.2441 28.3469 17.4285 28.2229 17.5834 28.0667L31.1834 14.4667C31.3526 14.3106 31.4876 14.1212 31.5799 13.9104C31.6723 13.6995 31.72 13.4718 31.72 13.2417C31.72 13.0115 31.6723 12.7838 31.5799 12.573C31.4876 12.3622 31.3526 12.1727 31.1834 12.0167Z" fill="black"/>
</g>
</svg>
